<?xml version="1.0" encoding="utf-8"?>
<!-- Generator: Adobe Illustrator 23.1.1, SVG Export Plug-In . SVG Version: 6.00 Build 0)  -->
<svg version="1.1" id="Layer_1" xmlns="http://www.w3.org/2000/svg" xmlns:xlink="http://www.w3.org/1999/xlink" x="0px" y="0px"
	 viewBox="0 0 168.8 253.9" style="enable-background:new 0 0 168.8 253.9;" xml:space="preserve">
<style type="text/css">
	.st0{fill:#506154;}
	.st1{display:none;fill:#506154;}
	.st2{fill:#BBBC4A;}
</style>
<path class="st0" d="M55.3,113.1C64.8,104.2,74,98,85.4,96c23.5-4,45.2,0.6,64.3,14.9c12.8,9.5,18.3,23.2,18.5,38.8
	c0.5,33,0.3,66,0.6,99c0,3.8-1.3,4.9-4.9,4.8c-13-0.1-26-0.2-39,0.1c-5,0.1-6.6-1.3-6.5-6.4c0.2-34.7,0.2-69.3,0.1-104
	c0-6-0.3-12-1.2-17.9c-2.5-16.3-13.9-24.2-30.1-21.3c-13.3,2.4-23,10.1-30.3,21.1c-1.2,1.9-1.4,4.7-1.4,7.1
	c-0.1,38.3-0.1,76.7-0.2,115c0,6.6,0,6.6-6.6,6.6c-12,0-24-0.2-36,0.2c-5,0.1-6.5-1.3-6.5-6.4c0.3-65.3,0.3-130.6,0.4-196
	c0-11.3-0.1-22.7,0-34C6.7,14.3,6,12,3.1,10C1.4,8.8-0.1,6,0,4.1C0.2,0.8,3.1-0.1,6.3,0C14.6,0.3,23-0.2,31.2,0.6
	c5.2,0.5,10.4,2.3,15.1,4.6c5.5,2.7,8.5,7.5,8.5,14.1c0.1,28.7,0.3,57.3,0.5,86C55.4,107.4,55.3,109.5,55.3,113.1z"/>
<path class="st1" d="M510.8,247.5c-8.5-4-11.9-10.3-11.6-19.9c0.6-22.8,0.5-45.7,0.2-68.5c-0.4-31-16.1-52-45.4-61.5
	c-13.6-4.4-27.6-6.4-41.9-5.8c-22.3,0.9-40,10.5-52,29.7c-5.2,8.4-2.8,21.9,4.9,28.3c7.8,6.6,19,6.5,26.6-0.1c7.4-6.5,9-19.2,3.3-28
	c-4.5-7-11.2-9.3-19.5-7.8c9.2-8.2,19.7-12.9,31.7-14.5c19.8-2.6,35,7,39.8,26.4c2.1,8.3,2.5,17.1,3.3,25.7
	c0.5,5.2,0.1,10.5,0.1,16.4c-15.7-5.5-30.9-5.2-46.2-3.4c-16.3,1.9-31.6,6.3-44.9,16.6c-24.1,18.7-21.1,55,5.9,69
	c15.3,8,31.9,7.9,48.4,6c8.1-0.9,16.5-3.1,23.8-6.7c5.8-2.8,10.2-8.5,15.2-13c0.1,0.3,0.4,1.2,0.6,2.2c2.5,11.3,4.7,13.8,16.3,14.5
	c13.5,0.8,27,0.5,40.5,0.7c2.6,0,5.2,0,7.8,0c0.2-0.6,0.4-1.2,0.6-1.8C515.8,250.5,513.4,248.7,510.8,247.5z M417.9,249.4
	c-8.2,0.8-14.5-2.1-19.5-8.7c-14.3-19.2-5.9-55.2,15.5-65.9c11.2-5.6,22.7-4,34-0.6c1.2,0.4,2.4,3,2.5,4.6c0.3,6.6,0.1,13.3,0.1,20
	h0c0,5.3-0.3,10.7,0,16C451.6,231.6,434.3,247.9,417.9,249.4z"/>
<path class="st1" d="M585.2,157.2c0,30-0.2,60-0.3,90c0,6.7-0.1,6.7-6.6,6.7c-4.6,0-9.2,0-13.7,0c-2.8,0-5.6,0-8.4,0
	c-4.6,0-9.3,0-13.9,0c-6.3,0-6.8-0.3-6.8-6.9c-0.1-38.5,0-77,0-115.5h-0.2V86.9c0-23.5,0-47,0-70.5l0-12.8c1.7-1,4.1-1.8,6.8-2.3
	c0.5-0.1,1.1-0.2,1.7-0.3c3.1-0.5,6.5-0.8,9.9-0.8c0.5,0,0.9,0,1.3,0c2.2,0,4.3,0.1,6.3,0.3c1.6,0.2,3.1,0.4,4.6,0.9
	c0.6,0.2,1.3,0.4,1.9,0.6c3.4,1.2,6.4,3.1,9,5.5c1.3,1.2,2.4,2.5,3.4,3.9c3.1,4.3,4.8,9.4,4.8,14.9c-0.1,18.4-0.1,36.7,0,55.1
	c0,8.7,0,17.4,0.1,26C585.1,123.9,585.1,140.6,585.2,157.2z"/>
<path class="st1" d="M335.6,163.2c-0.3-19.6-6.4-37-21.8-50.2c-25.1-21.5-67.8-21.7-94.8-0.8c-32.9,25.4-34.2,75.9-18.6,102.4
	c17.2,29.3,43.8,41.8,77.1,40.7c15.2-0.5,28.6-6.2,38.9-17.9c7.8-8.8,12.3-19.1,14.6-30.9c-7.9-1.6-8-1.4-10.3,4.9
	c-7.4,20-20.5,33.2-42.4,36.3c-21.3,3.1-35-8.1-35.8-29.7c-0.5-12.6-0.3-25.3-0.8-38c-0.2-4.5,1.5-5.6,5.8-5.5
	c25.7,0.2,51.3,0.3,77,0.2C337.4,174.6,335.9,177,335.6,163.2z M286.3,160.9c0.1,3.5-1.5,4.6-4.8,4.5c-6-0.2-12-0.1-18-0.1
	c-6,0-12-0.1-18,0c-2.7,0-4.2-0.7-3.9-3.7c1.3-12.4,1.9-24.9,4.2-37.1c1.6-8.5,6.2-16,15.9-18c7.4-1.6,12,0.5,16.2,6.8
	c5.6,8.5,7.2,18.2,8,28C286.6,147.8,286.1,154.4,286.3,160.9z"/>
<path class="st1" d="M536.1,131.3c0-38.1,0-76.3,0-114.4c0-2.9-0.1-5-3.6-6.6c-1.8-0.8-2.7-4.9-2.8-7.6c0-0.9,3.4-2.9,5.3-2.9
	c9.1,0,18.3,0.1,27.4,1c13.6,1.4,23.4,12.9,23.3,25.5c-0.2,43.9,0.1,87.9,0.2,131.8c0,29.8-0.3,59.6-0.2,89.4c0,2.1,5.6,5.3,4.9,6.3
	c-5.4,0-8,0-11.4,0c-12.1-0.1-23.6,0-35.4,0c-7.1,0-7.5-0.2-7.5-7.2c-0.1-38.5,0-76.9,0-115.4C536.2,131.3,536.2,131.3,536.1,131.3z
	"/>
<path class="st2" d="M82.9,94.6c-4,0.5-8.1-0.8-13.1-1.5c0.5-0.7,0.9-1.5,1.4-2.2C76.5,82.4,81.7,74,87,65.5c0.8-1.4,2-2.3,3.6-2.6
	c2.2-0.3,3.7-1.5,4.8-3.3c2.2-3.7,4.4-7.3,6.6-11.1c1.4-2.4,2.7-4.9,4.1-7.4c0,0-0.1-0.1-0.2-0.1c-0.2,0.2-0.3,0.4-0.5,0.6
	c-2.9,3.7-9.1,12-12,15.7c-0.3,0.4-0.6,0.8-1.1,0.4c-0.5-0.3-0.2-0.7,0-1.1c2.1-3.7,7.5-12,9.6-15.8c0.3-0.6,0.7-1.3,1-1.9
	c-0.2,0-0.3,0.2-0.4,0.3c-3,3.8-9.3,11.9-12.3,15.6c-0.3,0.4-0.6,0.8-1.2,0.5c-0.5-0.4-0.6-1.1-0.4-1.5c2-3.5,7.8-11.1,9.8-14.6
	c0.5-0.8,0.9-1.5,1.3-2.3c-0.2,0-0.4,0.2-0.5,0.3c-1.7,2.1-3.4,4.1-5,6.2c-2.8,3.6-5.6,7.2-8.3,10.9c-1,1.2-1.3,2.8-1,4.3
	c0.5,2.2-0.1,4-1.4,5.7c-2.2,2.8-4.2,5.7-6.3,8.6c-3,4.2-6.1,8.4-9.1,12.5c-1.2,1.6-2.4,3.3-3.6,4.9l-0.5-0.4
	c-0.3-0.3-0.5-0.7-0.6-1c-2.4-4.8-4.7-8.4-5.9-12.3C52.3,58,61.7,38.1,80.2,28.8c8.8-4.4,18.1-6.3,28-6.1c5.2,0.1,8.5,2.4,10.5,6.9
	C128.8,52.1,116.5,90.5,82.9,94.6z"/>
<g>
</g>
<g>
</g>
<g>
</g>
<g>
</g>
<g>
</g>
<g>
</g>
</svg>
