<?xml version="1.0" encoding="utf-8"?>
<!-- Generator: Adobe Illustrator 23.1.1, SVG Export Plug-In . SVG Version: 6.00 Build 0)  -->
<svg version="1.1" id="Layer_1" xmlns="http://www.w3.org/2000/svg" xmlns:xlink="http://www.w3.org/1999/xlink" x="0px" y="0px"
	 viewBox="0 0 186 329.9" style="enable-background:new 0 0 186 329.9;" xml:space="preserve">
<style type="text/css">
	.st0{fill:#E4D3BA;}
	.st1{fill:#506154;}
	.st2{fill:#BBBC4A;}
</style>
<path class="st0" d="M163,329.9H22.9C10.3,329.9,0,319.6,0,306.9v-284C0,10.3,10.3,0,22.9,0H163C175.7,0,186,10.3,186,22.9v284
	C186,319.6,175.7,329.9,163,329.9z"/>
<g>
	<path class="st1" d="M64,119.8c9.5-8.9,18.6-15.1,30-17.1c23.5-4,45.2,0.6,64.3,14.9c12.8,9.5,18.3,23.2,18.5,38.8
		c0.5,33,0.3,66,0.6,99c0,3.8-1.3,4.9-4.9,4.8c-13-0.1-26-0.2-39,0.1c-5,0.1-6.6-1.3-6.5-6.4c0.2-34.7,0.2-69.3,0.1-104
		c0-6-0.3-12-1.2-17.9c-2.5-16.3-13.9-24.2-30.1-21.3c-13.3,2.4-23,10.1-30.3,21.1c-1.2,1.9-1.4,4.7-1.4,7.1
		c-0.1,38.3-0.1,76.7-0.2,115c0,6.6,0,6.6-6.6,6.6c-12,0-24-0.2-36,0.2c-5,0.1-6.5-1.3-6.5-6.4c0.3-65.3,0.3-130.6,0.4-196
		c0-11.3-0.1-22.7,0-34c0-3.2-0.6-5.6-3.6-7.6c-1.7-1.1-3.2-4-3.1-5.9c0.2-3.3,3.1-4.2,6.3-4.1C23.3,7,31.7,6.5,39.9,7.3
		c5.2,0.5,10.4,2.3,15.1,4.6c5.5,2.7,8.5,7.5,8.5,14.1c0.1,28.7,0.3,57.3,0.5,86C64,114.1,64,116.2,64,119.8z"/>
	<path class="st2" d="M68.4,292c-0.1-6.7-2.2-12.6-7.4-17.1c-8.6-7.3-23.2-7.4-32.4-0.3c-11.2,8.7-11.7,25.9-6.4,35
		c5.9,10,15,14.3,26.3,13.9c5.2-0.2,9.8-2.1,13.3-6.1c2.7-3,4.2-6.5,5-10.6c-2.7-0.5-2.7-0.5-3.5,1.7c-2.5,6.8-7,11.3-14.5,12.4
		c-7.3,1-12-2.8-12.2-10.1c-0.2-4.3-0.1-8.7-0.3-13c-0.1-1.6,0.5-1.9,2-1.9c8.8,0.1,17.5,0.1,26.3,0.1C69,295.9,68.5,296.7,68.4,292
		z M51.5,291.2c0,1.2-0.5,1.6-1.6,1.5c-2-0.1-4.1,0-6.1,0c-2,0-4.1,0-6.1,0c-0.9,0-1.4-0.2-1.3-1.2c0.5-4.2,0.7-8.5,1.4-12.7
		c0.5-2.9,2.1-5.5,5.4-6.2c2.5-0.5,4.1,0.2,5.5,2.3c1.9,2.9,2.5,6.2,2.7,9.6C51.6,286.8,51.5,289,51.5,291.2z"/>
	<path class="st2" d="M138.4,320.2c-3-1.4-4.1-3.6-4-6.9c0.2-7.9,0.2-15.8,0.1-23.7c-0.1-10.7-5.6-18-15.7-21.3
		c-4.7-1.5-9.6-2.2-14.5-2c-7.7,0.3-13.8,3.6-18,10.3c-1.8,2.9-1,7.6,1.7,9.8c2.7,2.3,6.6,2.3,9.2,0c2.6-2.3,3.1-6.6,1.2-9.7
		c-1.6-2.4-3.9-3.2-6.7-2.7c3.2-2.8,6.8-4.5,11-5c6.9-0.9,12.1,2.4,13.8,9.1c0.7,2.9,0.9,5.9,1.1,8.9c0.2,1.8,0,3.6,0,5.7
		c-5.4-1.9-10.7-1.8-16-1.2c-5.6,0.7-10.9,2.2-15.5,5.7c-8.4,6.5-7.3,19,2,23.9c5.3,2.8,11,2.7,16.7,2.1c2.8-0.3,5.7-1.1,8.2-2.3
		c2-1,3.5-3,5.3-4.5c0,0.1,0.1,0.4,0.2,0.8c0.9,3.9,1.6,4.8,5.6,5c4.7,0.3,9.3,0.2,14,0.2c0.9,0,1.8,0,2.7,0
		c0.1-0.2,0.1-0.4,0.2-0.6C140.1,321.2,139.3,320.6,138.4,320.2z M106.2,320.9c-2.8,0.3-5-0.7-6.7-3c-5-6.6-2.1-19.1,5.4-22.8
		c3.9-1.9,7.8-1.4,11.8-0.2c0.4,0.1,0.8,1,0.8,1.6c0.1,2.3,0,4.6,0,6.9h0c0,1.8-0.1,3.7,0,5.5C117.9,314.7,111.9,320.3,106.2,320.9z
		"/>
	<path class="st2" d="M153.7,293.8c0-9.2,0-18.5,0-27.7c0-0.7,0-1.2-0.9-1.6c-0.4-0.2-0.6-1.2-0.7-1.8c0-0.2,0.8-0.7,1.3-0.7
		c2.2,0,4.4,0,6.6,0.2c3.3,0.3,5.7,3.1,5.6,6.2c0,10.6,0,21.3,0,31.9c0,7.2-0.1,14.4,0,21.6c0,0.5,1.3,1.3,1.2,1.5
		c-1.3,0-1.9,0-2.8,0c-2.9,0-5.7,0-8.6,0c-1.7,0-1.8-0.1-1.8-1.7C153.7,312.4,153.7,303.1,153.7,293.8
		C153.7,293.8,153.7,293.8,153.7,293.8z"/>
</g>
</svg>