<?xml version="1.0" encoding="utf-8"?>
<!-- Generator: Adobe Illustrator 23.1.1, SVG Export Plug-In . SVG Version: 6.00 Build 0)  -->
<svg version="1.1" xmlns="http://www.w3.org/2000/svg" xmlns:xlink="http://www.w3.org/1999/xlink" x="0px" y="0px"
	 viewBox="0 0 1039.05 1039.05" style="enable-background:new 0 0 1039.05 1039.05;" xml:space="preserve">
<style type="text/css">
	.st0{fill:#4F6053;}
	.st1{fill:#E4D3BA;}
	.st2{fill:#BABB49;}
	.st3{fill:#FFFFFF;}
	.st4{display:none;}
	.st5{display:inline;}
	.st6{display:inline;fill:#E4D3BA;}
	.st7{fill:#FFFFFD;}
	.st8{fill:none;}
</style>
<g id="Layer_1">
</g>
<g id="Layer_2">
</g>
<g id="Layer_3">
</g>
<g id="Layer_4">
	<g>
		<path class="st0" d="M281.99,480.98c9.46-8.89,18.61-15.15,30.04-17.1c23.5-4.01,45.19,0.63,64.33,14.88
			c12.77,9.5,18.3,23.23,18.51,38.78c0.45,32.99,0.33,65.99,0.6,98.98c0.03,3.8-1.29,4.88-4.91,4.84c-13-0.14-26-0.23-38.99,0.09
			c-4.98,0.13-6.57-1.27-6.53-6.42c0.23-34.66,0.19-69.32,0.1-103.98c-0.02-5.98-0.26-12.02-1.16-17.91
			c-2.49-16.26-13.9-24.21-30.09-21.28c-13.28,2.4-23.04,10.08-30.29,21.07c-1.24,1.88-1.36,4.74-1.37,7.15
			c-0.12,38.33-0.14,76.66-0.19,114.98c-0.01,6.55-0.02,6.55-6.61,6.56c-12,0.02-24-0.19-35.99,0.16c-5.01,0.15-6.49-1.26-6.47-6.41
			c0.27-65.32,0.3-130.65,0.38-195.97c0.01-11.33-0.12-22.66-0.02-33.99c0.03-3.23-0.65-5.56-3.58-7.57
			c-1.67-1.14-3.2-3.98-3.07-5.93c0.23-3.28,3.09-4.16,6.33-4.05c8.3,0.27,16.65-0.21,24.88,0.63c5.16,0.52,10.43,2.26,15.1,4.56
			c5.5,2.7,8.49,7.54,8.51,14.15c0.06,28.66,0.32,57.32,0.51,85.98C282,475.29,281.99,477.39,281.99,480.98z"/>
		<path class="st0" d="M737.48,615.34c-8.53-4.01-11.86-10.27-11.59-19.95c0.64-22.81,0.53-45.65,0.23-68.48
			c-0.41-31.02-16.07-52.02-45.45-61.53c-13.6-4.41-27.63-6.38-41.88-5.78c-22.33,0.93-39.99,10.5-51.97,29.65
			c-5.24,8.37-2.75,21.87,4.9,28.3c7.85,6.6,19.01,6.55,26.57-0.13c7.43-6.55,9.02-19.15,3.34-27.95
			c-4.55-7.03-11.22-9.28-19.5-7.83c9.16-8.18,19.68-12.92,31.69-14.5c19.83-2.61,35,7.01,39.81,26.36
			c2.07,8.33,2.51,17.1,3.27,25.7c0.45,5.2,0.08,10.48,0.08,16.42c-15.68-5.49-30.92-5.16-46.22-3.35
			c-16.27,1.92-31.62,6.34-44.87,16.59c-24.13,18.67-21.09,55.02,5.88,69.04c15.35,7.99,31.9,7.92,48.37,6.01
			c8.11-0.94,16.46-3.13,23.78-6.67c5.82-2.82,10.22-8.54,15.23-12.95c0.09,0.3,0.43,1.22,0.64,2.17
			c2.49,11.26,4.69,13.82,16.27,14.5c13.46,0.79,26.98,0.52,40.47,0.69c2.59,0.04,5.19,0.01,7.79,0.01c0.2-0.59,0.39-1.18,0.59-1.77
			C742.44,618.36,740.09,616.57,737.48,615.34z M644.53,617.28c-8.17,0.76-14.55-2.13-19.47-8.72
			c-14.33-19.21-5.95-55.16,15.49-65.85c11.2-5.58,22.67-4.03,34.02-0.56c1.21,0.37,2.38,2.96,2.45,4.56
			c0.27,6.64,0.11,13.31,0.11,19.96h-0.04c0,5.33-0.28,10.67,0.05,15.98C678.2,599.49,660.93,615.76,644.53,617.28z"/>
		<path class="st0" d="M811.8,525.03c0.01,30-0.15,59.99-0.28,89.99c-0.03,6.66-0.13,6.67-6.6,6.66c-4.57,0-9.15-0.01-13.72-0.02
			c-2.79,0-5.57-0.01-8.36-0.02c-4.64-0.01-9.28-0.02-13.92-0.03c-6.33-0.02-6.8-0.34-6.81-6.87c-0.06-38.5-0.03-76.99-0.03-115.49
			h-0.16v-44.52c0-23.49-0.01-46.98,0-70.47l0.05-12.78c1.74-1.01,4.08-1.78,6.75-2.35c0.54-0.11,1.1-0.21,1.67-0.31
			c3.08-0.52,6.5-0.79,9.88-0.83c0.45-0.01,0.9-0.01,1.34-0.01c2.19,0.01,4.34,0.12,6.35,0.31c1.58,0.15,3.12,0.44,4.6,0.86
			c0.64,0.17,1.27,0.37,1.88,0.6c3.4,1.22,6.44,3.12,8.99,5.51c1.27,1.17,2.42,2.48,3.42,3.89c3.07,4.26,4.84,9.44,4.81,14.9
			c-0.1,18.37-0.09,36.74-0.05,55.11c0.02,8.68,0.04,17.36,0.07,26.03C811.73,491.81,811.79,508.42,811.8,525.03z"/>
		<path class="st0" d="M562.26,531.08c-0.34-19.63-6.38-37.02-21.77-50.18c-25.13-21.49-67.8-21.66-94.79-0.8
			c-32.91,25.43-34.17,75.9-18.6,102.38c17.2,29.26,43.83,41.78,77.08,40.69c15.18-0.49,28.58-6.22,38.87-17.89
			c7.77-8.8,12.35-19.12,14.64-30.93c-7.94-1.57-8-1.36-10.31,4.87c-7.36,19.95-20.55,33.17-42.38,36.32
			c-21.29,3.07-35-8.12-35.83-29.71c-0.48-12.65-0.3-25.33-0.75-37.98c-0.16-4.54,1.5-5.59,5.78-5.55
			c25.66,0.22,51.32,0.3,76.98,0.2C564.06,542.45,562.5,544.84,562.26,531.08z M512.91,528.72c0.09,3.53-1.47,4.63-4.83,4.53
			c-5.99-0.19-11.99-0.06-17.99-0.06c-5.99-0.01-11.99-0.08-17.99,0.03c-2.66,0.05-4.17-0.73-3.85-3.66
			c1.33-12.38,1.94-24.89,4.24-37.08c1.6-8.49,6.24-15.97,15.89-18.05c7.38-1.59,12.02,0.48,16.22,6.79
			c5.65,8.49,7.21,18.22,8.05,28.03C513.2,515.7,512.74,522.24,512.91,528.72z"/>
		<path class="st0" d="M762.75,499.2c0-38.13-0.01-76.25,0.02-114.38c0-2.91-0.11-5-3.57-6.57c-1.81-0.82-2.68-4.91-2.79-7.58
			c-0.04-0.94,3.43-2.91,5.29-2.91c9.14,0.02,18.33,0.05,27.4,1c13.61,1.42,23.38,12.91,23.32,25.53
			c-0.2,43.95,0.14,87.9,0.15,131.85c0.01,29.8-0.26,59.6-0.18,89.4c0.01,2.13,5.56,5.29,4.85,6.32c-5.43-0.04-7.96-0.04-11.42-0.04
			c-12.14-0.11-23.62-0.01-35.44-0.04c-7.07-0.01-7.46-0.22-7.47-7.21c-0.06-38.46-0.03-76.92-0.03-115.38
			C762.85,499.2,762.8,499.2,762.75,499.2z"/>
		<path class="st2" d="M440.92,447.43c-0.27-0.34-0.49-0.67-0.63-0.95c-2.35-4.84-4.7-8.38-5.86-12.28
			c-5.52-18.6,3.94-38.56,22.39-47.87c8.81-4.44,18.13-6.32,28.01-6.07c5.19,0.13,8.54,2.42,10.55,6.91
			c10.08,22.53-2.26,60.89-35.82,65.04c-4.35,0.54-8.96-1.02-14.64-1.77c-0.44-0.06-0.96-0.31-1.49-0.67"/>
		<path class="st2" d="M410.51,460.25l-1.23,1.23c-7.29,2.18-14.13,1.77-20.78-0.13c-14.64-4.16-23.45-14.65-28.96-28.2
			c-4.74-11.67-6.03-23.78-3.39-36.23c0.86-4.04,3.03-5.84,7.17-6.17c9.91-0.8,19.56-0.07,29.01,3.33
			c23.25,8.36,32.97,34.84,25.21,56.77c-0.48,1.36-1.34,2.59-2.59,4.94l-1,1.01"/>
	</g>
	<g>
		<path class="st0" d="M220.81,646.15h6.62v31.1h-6.62v-12.91h-14.45v12.91h-6.62v-31.1h6.62v12.43h14.45V646.15z"/>
		<path class="st2" d="M257.58,667.84h-13.82c0.19,1.79,0.78,3.11,1.78,3.96c0.99,0.85,2.18,1.27,3.55,1.27
			c1.02,0,2.02-0.14,2.98-0.43c0.96-0.29,1.98-0.75,3.07-1.39l2.21,3.94c-1.15,0.87-2.48,1.54-3.98,2.02
			c-1.5,0.48-3.14,0.72-4.9,0.72c-2.11,0-4.01-0.38-5.69-1.15c-1.68-0.77-3.02-1.99-4.03-3.67c-1.01-1.68-1.51-3.85-1.51-6.5
			c0-2.43,0.42-4.53,1.27-6.29c0.85-1.76,2.08-3.1,3.7-4.01c1.62-0.91,3.53-1.37,5.74-1.37c2.11,0,3.91,0.42,5.4,1.25
			c1.49,0.83,2.6,1.97,3.34,3.41c0.74,1.44,1.1,3.07,1.1,4.9C257.77,665.12,257.7,666.24,257.58,667.84z M245.31,660.38
			c-0.66,0.69-1.12,1.77-1.36,3.24h7.34v-0.14c0-1.47-0.31-2.53-0.92-3.17c-0.62-0.64-1.43-0.96-2.45-0.96
			C246.84,659.35,245.97,659.69,245.31,660.38z"/>
		<path class="st2" d="M283.09,656.59c1.42,1.11,2.14,2.92,2.14,5.45v15.21h-5.52l-0.52-1.68c-1.19,0.86-2.37,1.47-3.54,1.82
			c-1.17,0.35-2.4,0.53-3.69,0.53c-1.35,0-2.54-0.26-3.56-0.77s-1.82-1.22-2.38-2.14c-0.56-0.91-0.84-1.96-0.84-3.14
			c0-2.53,1.25-4.46,3.76-5.79c2.5-1.33,5.78-2.07,9.83-2.23v-0.53c0-0.89-0.09-1.6-0.27-2.11c-0.18-0.51-0.49-0.89-0.94-1.13
			c-0.45-0.24-1.08-0.36-1.88-0.36c-2.02,0-4.32,0.82-6.89,2.45l-2.51-3.94c1.73-1.12,3.42-1.95,5.06-2.5
			c1.65-0.54,3.45-0.82,5.4-0.82C279.54,654.93,281.66,655.48,283.09,656.59z M272.51,672.67c0.42,0.37,1.04,0.55,1.85,0.55
			c1.33,0,2.79-0.43,4.38-1.3v-4.18c-2.37,0.13-4.11,0.5-5.21,1.1c-1.1,0.61-1.66,1.35-1.66,2.21
			C271.88,671.76,272.09,672.3,272.51,672.67z"/>
		<path class="st2" d="M295.59,677.25v-33.02l6.48-0.62v33.65H295.59z"/>
		<path class="st2" d="M327.13,676.34c-1.88,1.06-3.99,1.58-6.31,1.58c-1.18,0-2.27-0.23-3.28-0.7c-1-0.46-1.83-1.21-2.46-2.23
			c-0.64-1.02-0.96-2.32-0.96-3.89v-10.32h-3.94v-5.14h3.94v-4.85l6.48-0.91v5.76h6l-0.67,5.14h-5.33v9.31
			c0,0.96,0.17,1.63,0.5,2.02c0.34,0.38,0.81,0.58,1.42,0.58c0.45,0,0.88-0.06,1.3-0.17c0.42-0.11,0.93-0.3,1.54-0.55L327.13,676.34
			z"/>
		<path class="st2" d="M353.95,656.56c1.12,1.09,1.69,2.69,1.69,4.8v15.89h-6.48v-13.92c0-0.89-0.09-1.59-0.27-2.09
			c-0.18-0.5-0.48-0.86-0.9-1.08c-0.42-0.22-1.02-0.34-1.8-0.34c-1.39,0-2.9,0.46-4.52,1.39v16.03h-6.48v-33.02l6.48-0.62v13.39
			c2.25-1.38,4.67-2.06,7.27-2.06C351.16,654.93,352.83,655.47,353.95,656.56z"/>
		<path class="st2" d="M385.02,655.65v0.34l-6.58,20.45c-0.8,2.5-1.71,4.5-2.71,6s-2.21,2.62-3.6,3.34
			c-1.39,0.72-3.08,1.08-5.06,1.08c-1.73,0-3.33-0.29-4.8-0.86l1.63-4.56c0.86,0.32,1.76,0.48,2.69,0.48c0.77,0,1.46-0.1,2.06-0.31
			c0.61-0.21,1.2-0.66,1.78-1.34s1.12-1.69,1.63-3h-1.73l-8.06-21.26v-0.34h6.82l3.84,11.57c0.29,0.86,0.64,2.16,1.06,3.89
			c0.29-1.28,0.62-2.54,1.01-3.79l3.26-11.66H385.02z"/>
		<path class="st0" d="M415.45,671.68h14.4v5.57h-21.02v-31.1h20.78v5.52h-14.16v7.01h12.24l-0.78,5.47h-11.46V671.68z"/>
		<path class="st2" d="M455.69,656.59c1.42,1.11,2.14,2.92,2.14,5.45v15.21h-5.52l-0.52-1.68c-1.19,0.86-2.37,1.47-3.54,1.82
			c-1.17,0.35-2.4,0.53-3.68,0.53c-1.35,0-2.54-0.26-3.56-0.77s-1.82-1.22-2.38-2.14c-0.56-0.91-0.84-1.96-0.84-3.14
			c0-2.53,1.25-4.46,3.76-5.79c2.5-1.33,5.78-2.07,9.83-2.23v-0.53c0-0.89-0.09-1.6-0.27-2.11c-0.18-0.51-0.49-0.89-0.94-1.13
			s-1.08-0.36-1.88-0.36c-2.02,0-4.32,0.82-6.89,2.45l-2.51-3.94c1.73-1.12,3.42-1.95,5.06-2.5c1.65-0.54,3.45-0.82,5.4-0.82
			C452.15,654.93,454.27,655.48,455.69,656.59z M445.12,672.67c0.42,0.37,1.04,0.55,1.85,0.55c1.33,0,2.79-0.43,4.38-1.3v-4.18
			c-2.37,0.13-4.11,0.5-5.21,1.1c-1.1,0.61-1.66,1.35-1.66,2.21C444.49,671.76,444.7,672.3,445.12,672.67z"/>
		<path class="st2" d="M482.12,676.34c-1.88,1.06-3.99,1.58-6.31,1.58c-1.18,0-2.27-0.23-3.28-0.7s-1.83-1.21-2.46-2.23
			c-0.64-1.02-0.96-2.32-0.96-3.89v-10.32h-3.94v-5.14h3.94v-4.85l6.48-0.91v5.76h6l-0.67,5.14h-5.33v9.31
			c0,0.96,0.17,1.63,0.5,2.02c0.34,0.38,0.81,0.58,1.42,0.58c0.45,0,0.88-0.06,1.3-0.17c0.42-0.11,0.93-0.3,1.54-0.55L482.12,676.34
			z"/>
		<path class="st2" d="M491.29,651.88c-0.64-0.37-1.15-0.86-1.54-1.46c-0.38-0.61-0.58-1.28-0.58-2.02s0.19-1.42,0.58-2.04
			c0.38-0.62,0.9-1.12,1.54-1.49c0.64-0.37,1.33-0.55,2.06-0.55c0.77,0,1.48,0.19,2.14,0.55s1.18,0.86,1.56,1.49
			c0.38,0.62,0.58,1.3,0.58,2.04s-0.19,1.41-0.58,2.02c-0.38,0.61-0.9,1.1-1.56,1.46s-1.37,0.55-2.14,0.55
			C492.61,652.43,491.93,652.25,491.29,651.88z M490.23,677.25v-21.46l6.48-0.62v22.08H490.23z"/>
		<path class="st2" d="M526.08,656.59c1.12,1.11,1.69,2.71,1.69,4.82v15.84h-6.48v-13.92c0-0.89-0.09-1.59-0.27-2.09
			c-0.18-0.5-0.48-0.86-0.9-1.08c-0.42-0.22-1.02-0.34-1.8-0.34c-1.3,0-2.82,0.51-4.57,1.54v15.89h-6.48v-21.46l6.48-0.62v2.11
			c1.19-0.74,2.38-1.31,3.59-1.73c1.2-0.42,2.45-0.62,3.73-0.62C523.29,654.93,524.96,655.48,526.08,656.59z"/>
		<path class="st2" d="M555.82,673.7c1.3,0.42,2.3,1.05,3.02,1.89c0.72,0.85,1.08,1.98,1.08,3.38c0,1.6-0.5,2.99-1.51,4.18
			s-2.45,2.1-4.32,2.74c-1.87,0.64-4.07,0.96-6.6,0.96c-3.26,0-5.95-0.5-8.06-1.51c-2.11-1.01-3.17-2.55-3.17-4.63
			c0-1.19,0.3-2.18,0.91-3c0.61-0.82,1.42-1.51,2.45-2.09c-0.86-0.71-1.3-1.57-1.3-2.59c0-0.64,0.2-1.26,0.6-1.87
			c0.4-0.61,1.06-1.23,1.99-1.87c-1.31-0.67-2.3-1.56-2.95-2.66c-0.66-1.11-0.98-2.34-0.98-3.72c0-1.82,0.5-3.33,1.49-4.51
			s2.3-2.06,3.94-2.62c1.63-0.56,3.42-0.84,5.38-0.84c1.12,0,2.05,0.08,2.78,0.24l7.58-3.21l1.87,5.04l-4.51,1.06
			c1.63,1.25,2.45,2.93,2.45,5.04c0,1.76-0.5,3.19-1.49,4.3s-2.29,1.91-3.89,2.42c-1.6,0.51-3.34,0.77-5.23,0.77
			c-0.86,0-1.68-0.05-2.45-0.14c-0.19,0.32-0.29,0.59-0.29,0.82c0,0.26,0.09,0.46,0.26,0.62s0.5,0.29,0.96,0.41
			c0.46,0.11,1.13,0.2,1.99,0.26l3.17,0.29C552.92,672.99,554.53,673.28,555.82,673.7z M551.53,681.67
			c0.89-0.42,1.34-0.99,1.34-1.73c0-0.45-0.13-0.8-0.4-1.06s-0.72-0.46-1.36-0.62s-1.55-0.3-2.74-0.43l-2.72-0.24
			c-0.47-0.03-1.14-0.14-2.02-0.34c-0.28,0.45-0.5,0.9-0.66,1.34c-0.16,0.45-0.23,0.85-0.23,1.2c0,0.83,0.36,1.46,1.08,1.87
			s2.03,0.62,3.94,0.62C549.38,682.29,550.64,682.08,551.53,681.67z M543.46,662.85c0,1.09,0.35,1.88,1.05,2.38s1.73,0.74,3.1,0.74
			c1.37,0,2.35-0.26,2.96-0.79c0.6-0.53,0.91-1.3,0.91-2.33c0-1.05-0.34-1.86-1.03-2.42c-0.68-0.56-1.68-0.84-2.98-0.84
			C544.8,659.59,543.46,660.67,543.46,662.85z"/>
		<path class="st0" d="M601.2,646.15l11.18,30.72v0.38h-7.25l-2.5-7.44h-11.52l-2.45,7.44h-7.15v-0.38l11.18-30.72H601.2z
			 M592.95,664.34h7.87l-3.98-11.86L592.95,664.34z"/>
		<path class="st2" d="M639.5,656.59c1.12,1.11,1.69,2.71,1.69,4.82v15.84h-6.48v-13.92c0-0.89-0.09-1.59-0.27-2.09
			c-0.18-0.5-0.48-0.86-0.9-1.08c-0.42-0.22-1.02-0.34-1.8-0.34c-1.3,0-2.82,0.51-4.57,1.54v15.89h-6.48v-21.46l6.48-0.62v2.11
			c1.19-0.74,2.38-1.31,3.59-1.73c1.2-0.42,2.45-0.62,3.73-0.62C636.71,654.93,638.38,655.48,639.5,656.59z"/>
		<path class="st2" d="M671.76,643.6v33.65h-5.52l-0.48-1.49c-2.12,1.44-4.3,2.16-6.55,2.16c-2.99,0-5.24-0.94-6.77-2.81
			c-1.52-1.87-2.29-4.6-2.29-8.19c0-2.81,0.54-5.12,1.64-6.91c1.09-1.79,2.5-3.09,4.21-3.89s3.54-1.2,5.46-1.2
			c1.19,0,2.46,0.18,3.8,0.53v-11.23L671.76,643.6z M657.9,671.54c0.68,0.99,1.69,1.49,3.04,1.49c0.74,0,1.46-0.11,2.17-0.34
			c0.71-0.22,1.43-0.56,2.17-1.01v-11.81c-1-0.22-1.93-0.34-2.8-0.34c-1.71,0-3.07,0.63-4.08,1.89c-1.01,1.27-1.52,3.08-1.52,5.45
			C656.88,668.99,657.22,670.55,657.9,671.54z"/>
		<path class="st0" d="M705.08,671.39h14.3v5.86h-20.93v-31.1h6.62V671.39z"/>
		<path class="st2" d="M728.84,651.88c-0.64-0.37-1.15-0.86-1.54-1.46c-0.38-0.61-0.58-1.28-0.58-2.02s0.19-1.42,0.58-2.04
			c0.38-0.62,0.9-1.12,1.54-1.49c0.64-0.37,1.33-0.55,2.06-0.55c0.77,0,1.48,0.19,2.14,0.55s1.18,0.86,1.56,1.49
			c0.38,0.62,0.58,1.3,0.58,2.04s-0.19,1.41-0.58,2.02c-0.38,0.61-0.9,1.1-1.56,1.46s-1.37,0.55-2.14,0.55
			C730.16,652.43,729.48,652.25,728.84,651.88z M727.78,677.25v-21.46l6.48-0.62v22.08H727.78z"/>
		<path class="st2" d="M764.74,655.65v0.34l-7.97,21.26h-6.58l-8.21-21.26v-0.34h6.91l3.7,11.47c0.45,1.47,0.78,2.74,1.01,3.79
			c0.06-0.26,0.18-0.77,0.34-1.54s0.34-1.52,0.53-2.26l3.07-11.47H764.74z"/>
		<path class="st2" d="M773.57,651.88c-0.64-0.37-1.15-0.86-1.54-1.46c-0.38-0.61-0.58-1.28-0.58-2.02s0.19-1.42,0.58-2.04
			c0.38-0.62,0.9-1.12,1.54-1.49c0.64-0.37,1.33-0.55,2.06-0.55c0.77,0,1.48,0.19,2.14,0.55s1.18,0.86,1.56,1.49
			c0.38,0.62,0.58,1.3,0.58,2.04s-0.19,1.41-0.58,2.02c-0.38,0.61-0.9,1.1-1.56,1.46s-1.37,0.55-2.14,0.55
			C774.9,652.43,774.21,652.25,773.57,651.88z M772.52,677.25v-21.46l6.48-0.62v22.08H772.52z"/>
		<path class="st2" d="M808.37,656.59c1.12,1.11,1.69,2.71,1.69,4.82v15.84h-6.48v-13.92c0-0.89-0.09-1.59-0.27-2.09
			c-0.18-0.5-0.48-0.86-0.9-1.08c-0.42-0.22-1.02-0.34-1.8-0.34c-1.3,0-2.82,0.51-4.57,1.54v15.89h-6.48v-21.46l6.48-0.62v2.11
			c1.19-0.74,2.38-1.31,3.59-1.73c1.2-0.42,2.45-0.62,3.73-0.62C805.57,654.93,807.24,655.48,808.37,656.59z"/>
		<path class="st2" d="M838.11,673.7c1.3,0.42,2.3,1.05,3.02,1.89c0.72,0.85,1.08,1.98,1.08,3.38c0,1.6-0.5,2.99-1.51,4.18
			s-2.45,2.1-4.32,2.74c-1.87,0.64-4.07,0.96-6.6,0.96c-3.26,0-5.95-0.5-8.06-1.51c-2.11-1.01-3.17-2.55-3.17-4.63
			c0-1.19,0.3-2.18,0.91-3c0.61-0.82,1.42-1.51,2.45-2.09c-0.86-0.71-1.3-1.57-1.3-2.59c0-0.64,0.2-1.26,0.6-1.87
			c0.4-0.61,1.06-1.23,1.99-1.87c-1.31-0.67-2.3-1.56-2.95-2.66c-0.66-1.11-0.98-2.34-0.98-3.72c0-1.82,0.5-3.33,1.49-4.51
			s2.3-2.06,3.94-2.62c1.63-0.56,3.42-0.84,5.38-0.84c1.12,0,2.05,0.08,2.78,0.24l7.58-3.21l1.87,5.04l-4.51,1.06
			c1.63,1.25,2.45,2.93,2.45,5.04c0,1.76-0.5,3.19-1.49,4.3s-2.29,1.91-3.89,2.42c-1.6,0.51-3.34,0.77-5.23,0.77
			c-0.86,0-1.68-0.05-2.45-0.14c-0.19,0.32-0.29,0.59-0.29,0.82c0,0.26,0.09,0.46,0.26,0.62s0.5,0.29,0.96,0.41
			c0.46,0.11,1.13,0.2,1.99,0.26l3.17,0.29C835.2,672.99,836.81,673.28,838.11,673.7z M833.82,681.67c0.89-0.42,1.34-0.99,1.34-1.73
			c0-0.45-0.13-0.8-0.4-1.06s-0.72-0.46-1.36-0.62s-1.55-0.3-2.74-0.43l-2.72-0.24c-0.47-0.03-1.14-0.14-2.02-0.34
			c-0.28,0.45-0.5,0.9-0.66,1.34c-0.16,0.45-0.23,0.85-0.23,1.2c0,0.83,0.36,1.46,1.08,1.87s2.03,0.62,3.94,0.62
			C831.67,682.29,832.93,682.08,833.82,681.67z M825.75,662.85c0,1.09,0.35,1.88,1.05,2.38s1.73,0.74,3.1,0.74
			c1.37,0,2.35-0.26,2.96-0.79c0.6-0.53,0.91-1.3,0.91-2.33c0-1.05-0.34-1.86-1.03-2.42c-0.68-0.56-1.68-0.84-2.98-0.84
			C827.08,659.59,825.75,660.67,825.75,662.85z"/>
	</g>
	<g class="st4">
		<g class="st5">
			<g>
				<path class="st1" d="M581.4,652.8c-147.65,0-362.53,10.29-365.24,10.42c-3.03,0.15-5.37,2.72-5.23,5.76
					c0.15,3.03,2.74,5.38,5.76,5.23c3.4-0.16,340.92-16.33,459.46-8.07l0.52,0.04c61.21,4.27,61.21,4.27,171.94,13.53
					c3.05,0.27,5.69-2,5.94-5.02c0.25-3.03-2-5.69-5.02-5.94c-110.8-9.27-110.8-9.27-172.09-13.54l-0.52-0.04
					C652.62,653.48,619.2,652.8,581.4,652.8z"/>
			</g>
		</g>
		<path class="st6" d="M301.39,642.96c4.91,5.06,4.27,13.63-1.41,19.15c-5.68,5.51-14.27,5.88-19.18,0.82
			c-4.91-5.06-4.27-13.63,1.41-19.14C287.9,638.28,296.48,637.91,301.39,642.96z"/>
		<path class="st6" d="M224.28,654.04c5.13,5.29,5.77,12.99,1.43,17.2c-4.33,4.21-12.01,3.32-17.14-1.97
			c-5.13-5.29-5.77-12.99-1.43-17.2C211.47,647.87,219.15,648.75,224.28,654.04z"/>
		<path class="st6" d="M274.5,685.9c-3.34,7.57-11.16,11.46-17.45,8.68c-6.29-2.77-8.68-11.17-5.34-18.74
			c3.34-7.57,11.16-11.46,17.45-8.68C275.45,669.94,277.84,678.33,274.5,685.9z"/>
		<path class="st6" d="M354.5,668.97c5.25,5.42,6.12,13.1,1.95,17.16c-4.18,4.05-11.84,2.95-17.09-2.47
			c-5.26-5.42-6.13-13.1-1.94-17.15C341.6,662.44,349.25,663.55,354.5,668.97z"/>
		<path class="st6" d="M417.98,665.55c3.92,4.04,3.78,10.53-0.31,14.49c-4.08,3.96-10.57,3.9-14.49-0.15
			c-3.92-4.03-3.78-10.52,0.31-14.48C407.57,661.44,414.06,661.51,417.98,665.55z"/>
		<path class="st6" d="M442.85,629.88c2.44,2.52,2.36,6.57-0.19,9.04c-2.55,2.47-6.6,2.43-9.04-0.09c-2.44-2.52-2.36-6.57,0.19-9.04
			C436.36,627.32,440.41,627.36,442.85,629.88z"/>
		<path class="st6" d="M309.11,668.24c2.44,2.52,2.36,6.57-0.19,9.04c-2.55,2.47-6.6,2.43-9.04-0.09c-2.44-2.52-2.36-6.57,0.19-9.04
			C302.61,665.68,306.66,665.72,309.11,668.24z"/>
		<path class="st6" d="M380.02,641.19c3.74,3.85,3.15,10.49-1.32,14.83c-4.47,4.33-11.13,4.72-14.86,0.87
			c-3.73-3.86-3.14-10.5,1.33-14.83C369.62,637.72,376.28,637.34,380.02,641.19z"/>
		<path class="st6" d="M454.91,637.16c4.27,4.4,3.14,12.42-2.51,17.89c-5.65,5.48-13.7,6.36-17.97,1.96
			c-4.27-4.4-3.14-12.42,2.51-17.9C442.59,633.63,450.64,632.76,454.91,637.16z"/>
		<path class="st6" d="M283.67,635.74c3.37,3.37,3.34,8.86-0.07,12.27c-3.4,3.4-8.9,3.44-12.27,0.07
			c-3.37-3.37-3.34-8.86,0.07-12.27C274.81,632.4,280.3,632.37,283.67,635.74z"/>
		<path class="st6" d="M356.11,650.29c1.84-1.83,5.2-1.44,7.5,0.87c2.3,2.31,2.66,5.67,0.82,7.5c-1.84,1.83-5.2,1.44-7.5-0.87
			C354.63,655.47,354.27,652.12,356.11,650.29z"/>
	</g>
	<path class="st2" d="M414.95,455.79c-0.22,0.4-0.56,0.89-0.97,1.42c-0.8,1.03-1.86,2.2-2.84,3.05c-0.71,0.63-1.38,1.09-1.86,1.22
		l1.23-1.23l3.44-3.45L414.95,455.79z"/>
</g>
<g id="Layer_5">
	<path class="st7" d="M414.5,457.51l-3.26,3.18c-0.81-0.09-1.5-0.51-2.05-1.22c-0.34-0.44-0.55-0.98-0.81-1.47
		c-0.73-1.3-1.44-2.61-2.17-3.91c-0.79-1.36-1.57-2.73-2.38-4.08c-1.93-3.23-3.94-6.42-6.11-9.49c-2.06-2.9-4.18-5.77-6.27-8.65
		c-0.36-0.48-0.71-0.98-1.14-1.39c-0.55-0.54-1.28-0.72-2.04-0.51c-0.23,0.06-0.45,0.1-0.67,0.13c-1.45,0.2-2.73-0.27-3.9-1.19
		c-1.34-1.04-2.29-2.37-3.17-3.76c-0.9-1.44-1.61-2.97-2.14-4.57c-0.55-1.62-0.92-3.28-0.83-5.01c0.05-0.79,0.2-1.57,0.67-2.22
		c0.7-0.99,1.72-1.22,2.87-1.08c1.24,0.16,2.38,0.62,3.43,1.26c1.02,0.63,2.05,1.29,2.97,2.05c1.42,1.16,2.69,2.49,3.78,4.03
		c0.71,0.95,1.34,2,1.71,3.17c0.5,1.51,0.42,2.96-0.55,4.31c-0.03,0.05-0.06,0.08-0.09,0.13c-0.46,0.72-0.52,1.52,0,2.26
		c1.3,1.87,2.6,3.73,3.96,5.56c1.33,1.77,2.7,3.52,4.09,5.25c1.63,2.04,3.29,4.06,4.95,6.07c1.27,1.53,2.56,3.05,3.86,4.56
		c1.53,1.75,3.07,3.5,4.62,5.24C414.21,456.56,414.42,457.03,414.5,457.51z"/>
	<g id="cH6dpU_1_">
		<g>
			<path class="st3" d="M482.74,398.76c-1.36,2.47-2.68,4.97-4.1,7.4c-2.14,3.71-4.36,7.37-6.56,11.06c-1.09,1.84-2.64,2.97-4.8,3.3
				c-1.62,0.24-2.79,1.22-3.64,2.58c-5.28,8.45-10.55,16.9-15.83,25.35c-1.87,2.99-3.71,6-5.61,8.98c-0.91,1.44-2.7,1.99-4.08,1.34
				c-1.8-0.86-2.37-3.13-1.15-4.83c2.63-3.66,5.31-7.31,7.97-10.96c3.05-4.17,6.09-8.35,9.14-12.53c2.1-2.88,4.14-5.78,6.3-8.61
				c1.32-1.74,1.9-3.53,1.38-5.71c-0.37-1.54,0-3.04,0.95-4.3c2.73-3.66,5.5-7.29,8.29-10.9c1.62-2.09,3.32-4.11,4.99-6.17
				c0.11-0.13,0.22-0.25,0.46-0.3c-0.43,0.77-0.86,1.53-1.3,2.3c-2.04,3.53-7.79,11.1-9.83,14.64c-0.23,0.4-0.14,1.16,0.4,1.52
				c0.56,0.38,0.88-0.07,1.18-0.45c2.98-3.75,9.28-11.87,12.26-15.61c0.09-0.12,0.19-0.22,0.42-0.26c-0.35,0.63-0.69,1.27-1.03,1.9
				c-2.09,3.72-7.5,12.05-9.59,15.76c-0.23,0.39-0.44,0.79,0.03,1.12c0.52,0.37,0.84-0.01,1.13-0.38
				c2.89-3.69,9.08-12.02,11.97-15.71c0.16-0.21,0.34-0.42,0.5-0.63C482.63,398.69,482.69,398.72,482.74,398.76z"/>
		</g>
	</g>
</g>
<g id="Layer_6">
</g>
<g id="Layer_7">
</g>
</svg>
