<?xml version="1.0" encoding="utf-8"?>
<!-- Generator: Adobe Illustrator 23.1.1, SVG Export Plug-In . SVG Version: 6.00 Build 0)  -->
<svg version="1.1" id="Layer_1" xmlns="http://www.w3.org/2000/svg" xmlns:xlink="http://www.w3.org/1999/xlink" x="0px" y="0px"
	 viewBox="0 0 651.3 322.3" style="enable-background:new 0 0 651.3 322.3;" xml:space="preserve">
<style type="text/css">
	.st0{fill:#506154;}
	.st1{fill:#BBBC4A;}
</style>
<g>
	<g>
		<path class="st0" d="M85.7,115.2c9.5-8.9,18.6-15.1,30-17.1c23.5-4,45.2,0.6,64.3,14.9c12.8,9.5,18.3,23.2,18.5,38.8
			c0.5,33,0.3,66,0.6,99c0,3.8-1.3,4.9-4.9,4.8c-13-0.1-26-0.2-39,0.1c-5,0.1-6.6-1.3-6.5-6.4c0.2-34.7,0.2-69.3,0.1-104
			c0-6-0.3-12-1.2-17.9c-2.5-16.3-13.9-24.2-30.1-21.3c-13.3,2.4-23,10.1-30.3,21.1c-1.2,1.9-1.4,4.7-1.4,7.1
			c-0.1,38.3-0.1,76.7-0.2,115c0,6.6,0,6.6-6.6,6.6c-12,0-24-0.2-36,0.2c-5,0.1-6.5-1.3-6.5-6.4c0.3-65.3,0.3-130.6,0.4-196
			c0-11.3-0.1-22.7,0-34c0-3.2-0.6-5.6-3.6-7.6c-1.7-1.1-3.2-4-3.1-5.9c0.2-3.3,3.1-4.2,6.3-4.1C45,2.4,53.3,1.9,61.5,2.7
			C66.7,3.3,72,5,76.6,7.3c5.5,2.7,8.5,7.5,8.5,14.1c0.1,28.7,0.3,57.3,0.5,86C85.7,109.5,85.7,111.6,85.7,115.2z"/>
		<path class="st0" d="M541.2,249.6c-8.5-4-11.9-10.3-11.6-19.9c0.6-22.8,0.5-45.6,0.2-68.5c-0.4-31-16.1-52-45.4-61.5
			c-13.6-4.4-27.6-6.4-41.9-5.8c-22.3,0.9-40,10.5-52,29.6c-5.2,8.4-2.8,21.9,4.9,28.3c7.8,6.6,19,6.6,26.6-0.1
			c7.4-6.6,9-19.2,3.3-27.9c-4.5-7-11.2-9.3-19.5-7.8c9.2-8.2,19.7-12.9,31.7-14.5c19.8-2.6,35,7,39.8,26.4
			c2.1,8.3,2.5,17.1,3.3,25.7c0.5,5.2,0.1,10.5,0.1,16.4c-15.7-5.5-30.9-5.2-46.2-3.4c-16.3,1.9-31.6,6.3-44.9,16.6
			c-24.1,18.7-21.1,55,5.9,69c15.3,8,31.9,7.9,48.4,6c8.1-0.9,16.5-3.1,23.8-6.7c5.8-2.8,10.2-8.5,15.2-13c0.1,0.3,0.4,1.2,0.6,2.2
			c2.5,11.3,4.7,13.8,16.3,14.5c13.5,0.8,27,0.5,40.5,0.7c2.6,0,5.2,0,7.8,0c0.2-0.6,0.4-1.2,0.6-1.8
			C546.1,252.6,543.8,250.8,541.2,249.6z M448.2,251.5c-8.2,0.8-14.5-2.1-19.5-8.7c-14.3-19.2-5.9-55.2,15.5-65.8
			c11.2-5.6,22.7-4,34-0.6c1.2,0.4,2.4,3,2.5,4.6c0.3,6.6,0.1,13.3,0.1,20h0c0,5.3-0.3,10.7,0,16C481.9,233.7,464.6,250,448.2,251.5
			z"/>
		<path class="st0" d="M615.5,159.3c0,30-0.2,60-0.3,90c0,6.7-0.1,6.7-6.6,6.7c-4.6,0-9.2,0-13.7,0c-2.8,0-5.6,0-8.4,0
			c-4.6,0-9.3,0-13.9,0c-6.3,0-6.8-0.3-6.8-6.9c-0.1-38.5,0-77,0-115.5h-0.2V89c0-23.5,0-47,0-70.5l0-12.8c1.7-1,4.1-1.8,6.8-2.3
			c0.5-0.1,1.1-0.2,1.7-0.3c3.1-0.5,6.5-0.8,9.9-0.8c0.5,0,0.9,0,1.3,0c2.2,0,4.3,0.1,6.3,0.3c1.6,0.2,3.1,0.4,4.6,0.9
			c0.6,0.2,1.3,0.4,1.9,0.6c3.4,1.2,6.4,3.1,9,5.5c1.3,1.2,2.4,2.5,3.4,3.9c3.1,4.3,4.8,9.4,4.8,14.9c-0.1,18.4-0.1,36.7,0,55.1
			c0,8.7,0,17.4,0.1,26C615.4,126,615.5,142.6,615.5,159.3z"/>
		<path class="st0" d="M365.9,165.3c-0.3-19.6-6.4-37-21.8-50.2c-25.1-21.5-67.8-21.7-94.8-0.8c-32.9,25.4-34.2,75.9-18.6,102.4
			c17.2,29.3,43.8,41.8,77.1,40.7c15.2-0.5,28.6-6.2,38.9-17.9c7.8-8.8,12.3-19.1,14.6-30.9c-7.9-1.6-8-1.4-10.3,4.9
			c-7.4,19.9-20.5,33.2-42.4,36.3c-21.3,3.1-35-8.1-35.8-29.7c-0.5-12.6-0.3-25.3-0.8-38c-0.2-4.5,1.5-5.6,5.8-5.6
			c25.7,0.2,51.3,0.3,77,0.2C367.7,176.7,366.2,179.1,365.9,165.3z M316.6,162.9c0.1,3.5-1.5,4.6-4.8,4.5c-6-0.2-12-0.1-18-0.1
			c-6,0-12-0.1-18,0c-2.7,0-4.2-0.7-3.9-3.7c1.3-12.4,1.9-24.9,4.2-37.1c1.6-8.5,6.2-16,15.9-18c7.4-1.6,12,0.5,16.2,6.8
			c5.6,8.5,7.2,18.2,8,28C316.9,149.9,316.4,156.5,316.6,162.9z"/>
		<path class="st0" d="M566.4,133.4c0-38.1,0-76.3,0-114.4c0-2.9-0.1-5-3.6-6.6c-1.8-0.8-2.7-4.9-2.8-7.6c0-0.9,3.4-2.9,5.3-2.9
			c9.1,0,18.3,0.1,27.4,1c13.6,1.4,23.4,12.9,23.3,25.5c-0.2,43.9,0.1,87.9,0.2,131.8c0,29.8-0.3,59.6-0.2,89.4
			c0,2.1,5.6,5.3,4.9,6.3c-5.4,0-8,0-11.4,0c-12.1-0.1-23.6,0-35.4,0c-7.1,0-7.5-0.2-7.5-7.2c-0.1-38.5,0-76.9,0-115.4
			C566.5,133.4,566.5,133.4,566.4,133.4z"/>
		<path class="st1" d="M263.2,86.4c-4,0.5-8.1-0.8-13.1-1.6c0.5-0.7,0.9-1.5,1.4-2.2c5.3-8.5,10.6-16.9,15.8-25.4
			c0.8-1.4,2-2.3,3.6-2.6c2.2-0.3,3.7-1.5,4.8-3.3c2.2-3.7,4.4-7.3,6.5-11.1c1.4-2.4,2.7-4.9,4.1-7.4c0,0-0.1-0.1-0.2-0.1
			c-0.2,0.2-0.3,0.4-0.5,0.6c-2.9,3.7-9.1,12-12,15.7c-0.3,0.4-0.6,0.8-1.1,0.4c-0.5-0.3-0.2-0.7,0-1.1c2.1-3.7,7.5-12.1,9.6-15.8
			c0.3-0.6,0.7-1.3,1-1.9c-0.2,0.1-0.3,0.1-0.4,0.3c-3,3.7-9.3,11.9-12.3,15.6c-0.3,0.4-0.6,0.8-1.2,0.5c-0.5-0.4-0.6-1.1-0.4-1.5
			c2-3.6,7.8-11.1,9.8-14.7c0.5-0.8,0.9-1.5,1.3-2.3c-0.2,0.1-0.3,0.2-0.5,0.3c-1.7,2.1-3.4,4.1-5,6.2c-2.8,3.6-5.6,7.2-8.3,10.9
			c-0.9,1.2-1.3,2.8-1,4.3c0.5,2.2-0.1,4-1.4,5.7c-2.2,2.8-4.2,5.7-6.3,8.6c-3,4.2-6.1,8.4-9.1,12.5l-3.6,4.9l-0.5-0.4
			c-0.3-0.3-0.5-0.7-0.6-1c-2.4-4.8-4.7-8.4-5.9-12.3c-5.5-18.6,3.9-38.6,22.4-47.9c8.8-4.4,18.1-6.3,28-6.1
			c5.2,0.1,8.5,2.4,10.5,6.9C309.1,43.9,296.8,82.3,263.2,86.4z"/>
		<path class="st1" d="M221.2,85.1c-0.5,1.4-1.3,2.6-2.6,4.9c-0.2,0.3-0.4,0.6-0.7,1c0-0.1-0.1-0.1-0.1-0.2
			c-0.1-0.1-0.2-0.3-0.3-0.4c-1.5-1.7-3.1-3.5-4.6-5.2c-1.3-1.5-2.6-3-3.9-4.6c-1.7-2-3.3-4-5-6.1c-1.4-1.7-2.8-3.5-4.1-5.3
			c-1.4-1.8-2.7-3.7-4-5.6c-0.5-0.7-0.5-1.5,0-2.2c0,0,0.1-0.1,0.1-0.1c1-1.4,1.1-2.8,0.5-4.3c-0.4-1.2-1-2.2-1.7-3.2
			c-1.1-1.5-2.4-2.9-3.8-4c-0.9-0.8-2-1.4-3-2c-1.1-0.7-2.2-1.1-3.4-1.3c-1.2-0.1-2.2,0.1-2.9,1.1c-0.5,0.7-0.6,1.4-0.7,2.2
			c-0.1,1.7,0.3,3.4,0.8,5c0.5,1.6,1.2,3.1,2.1,4.6c0.9,1.4,1.8,2.7,3.2,3.8c1.2,0.9,2.5,1.4,3.9,1.2c0.2,0,0.5-0.1,0.7-0.1
			c0.8-0.2,1.5,0,2,0.5c0.4,0.4,0.8,0.9,1.1,1.4c2.1,2.9,4.2,5.7,6.3,8.7c2.2,3.1,4.2,6.3,6.1,9.5c0.8,1.4,1.6,2.7,2.4,4.1
			c0.7,1.3,1.4,2.6,2.2,3.9c0.3,0.5,0.5,1,0.8,1.5c0.3,0.4,0.7,0.8,1.1,1c0.1,0.1,0.3,0.1,0.4,0.2c-0.6,0.5-1.1,0.8-1.5,0.9
			c-7.3,2.2-14.1,1.8-20.8-0.1c-14.6-4.2-23.5-14.6-29-28.2c-4.7-11.7-6-23.8-3.4-36.2c0.9-4,3-5.8,7.2-6.2c9.9-0.8,19.6-0.1,29,3.3
			C219.3,36.7,229,63.1,221.2,85.1z"/>
	</g>
	<g>
		<path class="st0" d="M24.5,280.4h6.6v31.1h-6.6v-12.9H10v12.9H3.4v-31.1H10v12.4h14.4V280.4z"/>
		<path class="st1" d="M61.2,302.1H47.4c0.2,1.8,0.8,3.1,1.8,4c1,0.8,2.2,1.3,3.6,1.3c1,0,2-0.1,3-0.4s2-0.8,3.1-1.4l2.2,3.9
			c-1.2,0.9-2.5,1.5-4,2c-1.5,0.5-3.1,0.7-4.9,0.7c-2.1,0-4-0.4-5.7-1.2c-1.7-0.8-3-2-4-3.7c-1-1.7-1.5-3.8-1.5-6.5
			c0-2.4,0.4-4.5,1.3-6.3c0.8-1.8,2.1-3.1,3.7-4c1.6-0.9,3.5-1.4,5.7-1.4c2.1,0,3.9,0.4,5.4,1.2c1.5,0.8,2.6,2,3.3,3.4
			c0.7,1.4,1.1,3.1,1.1,4.9C61.4,299.4,61.4,300.5,61.2,302.1z M49,294.6c-0.7,0.7-1.1,1.8-1.4,3.2H55v-0.1c0-1.5-0.3-2.5-0.9-3.2
			c-0.6-0.6-1.4-1-2.4-1C50.5,293.6,49.6,293.9,49,294.6z"/>
		<path class="st1" d="M86.8,290.8c1.4,1.1,2.1,2.9,2.1,5.4v15.2h-5.5l-0.5-1.7c-1.2,0.9-2.4,1.5-3.5,1.8c-1.2,0.4-2.4,0.5-3.7,0.5
			c-1.3,0-2.5-0.3-3.6-0.8c-1-0.5-1.8-1.2-2.4-2.1c-0.6-0.9-0.8-2-0.8-3.1c0-2.5,1.3-4.5,3.8-5.8c2.5-1.3,5.8-2.1,9.8-2.2v-0.5
			c0-0.9-0.1-1.6-0.3-2.1c-0.2-0.5-0.5-0.9-0.9-1.1c-0.4-0.2-1.1-0.4-1.9-0.4c-2,0-4.3,0.8-6.9,2.4l-2.5-3.9c1.7-1.1,3.4-2,5.1-2.5
			c1.6-0.5,3.4-0.8,5.4-0.8C83.2,289.2,85.3,289.7,86.8,290.8z M76.2,306.9c0.4,0.4,1,0.6,1.8,0.6c1.3,0,2.8-0.4,4.4-1.3V302
			c-2.4,0.1-4.1,0.5-5.2,1.1c-1.1,0.6-1.7,1.3-1.7,2.2C75.6,306,75.8,306.5,76.2,306.9z"/>
		<path class="st1" d="M99.3,311.5v-33l6.5-0.6v33.6H99.3z"/>
		<path class="st1" d="M130.8,310.6c-1.9,1.1-4,1.6-6.3,1.6c-1.2,0-2.3-0.2-3.3-0.7c-1-0.5-1.8-1.2-2.5-2.2c-0.6-1-1-2.3-1-3.9V295
			h-3.9v-5.1h3.9V285l6.5-0.9v5.8h6l-0.7,5.1h-5.3v9.3c0,1,0.2,1.6,0.5,2s0.8,0.6,1.4,0.6c0.4,0,0.9-0.1,1.3-0.2
			c0.4-0.1,0.9-0.3,1.5-0.6L130.8,310.6z"/>
		<path class="st1" d="M157.6,290.8c1.1,1.1,1.7,2.7,1.7,4.8v15.9h-6.5v-13.9c0-0.9-0.1-1.6-0.3-2.1c-0.2-0.5-0.5-0.9-0.9-1.1
			c-0.4-0.2-1-0.3-1.8-0.3c-1.4,0-2.9,0.5-4.5,1.4v16h-6.5v-33l6.5-0.6v13.4c2.2-1.4,4.7-2.1,7.3-2.1
			C154.8,289.2,156.5,289.7,157.6,290.8z"/>
		<path class="st1" d="M188.7,289.9v0.3l-6.6,20.4c-0.8,2.5-1.7,4.5-2.7,6s-2.2,2.6-3.6,3.3c-1.4,0.7-3.1,1.1-5.1,1.1
			c-1.7,0-3.3-0.3-4.8-0.9l1.6-4.6c0.9,0.3,1.8,0.5,2.7,0.5c0.8,0,1.5-0.1,2.1-0.3c0.6-0.2,1.2-0.7,1.8-1.3c0.6-0.7,1.1-1.7,1.6-3
			H174l-8.1-21.3v-0.3h6.8l3.8,11.6c0.3,0.9,0.6,2.2,1.1,3.9c0.3-1.3,0.6-2.5,1-3.8l3.3-11.7H188.7z"/>
		<path class="st0" d="M219.1,305.9h14.4v5.6h-21v-31.1h20.8v5.5h-14.2v7h12.2l-0.8,5.5h-11.5V305.9z"/>
		<path class="st1" d="M259.4,290.8c1.4,1.1,2.1,2.9,2.1,5.4v15.2H256l-0.5-1.7c-1.2,0.9-2.4,1.5-3.5,1.8c-1.2,0.4-2.4,0.5-3.7,0.5
			c-1.3,0-2.5-0.3-3.6-0.8c-1-0.5-1.8-1.2-2.4-2.1c-0.6-0.9-0.8-2-0.8-3.1c0-2.5,1.3-4.5,3.8-5.8c2.5-1.3,5.8-2.1,9.8-2.2v-0.5
			c0-0.9-0.1-1.6-0.3-2.1c-0.2-0.5-0.5-0.9-0.9-1.1s-1.1-0.4-1.9-0.4c-2,0-4.3,0.8-6.9,2.4l-2.5-3.9c1.7-1.1,3.4-2,5.1-2.5
			s3.4-0.8,5.4-0.8C255.8,289.2,257.9,289.7,259.4,290.8z M248.8,306.9c0.4,0.4,1,0.6,1.8,0.6c1.3,0,2.8-0.4,4.4-1.3V302
			c-2.4,0.1-4.1,0.5-5.2,1.1c-1.1,0.6-1.7,1.3-1.7,2.2C248.2,306,248.4,306.5,248.8,306.9z"/>
		<path class="st1" d="M285.8,310.6c-1.9,1.1-4,1.6-6.3,1.6c-1.2,0-2.3-0.2-3.3-0.7c-1-0.5-1.8-1.2-2.5-2.2c-0.6-1-1-2.3-1-3.9V295
			h-3.9v-5.1h3.9V285l6.5-0.9v5.8h6l-0.7,5.1h-5.3v9.3c0,1,0.2,1.6,0.5,2c0.3,0.4,0.8,0.6,1.4,0.6c0.4,0,0.9-0.1,1.3-0.2
			c0.4-0.1,0.9-0.3,1.5-0.6L285.8,310.6z"/>
		<path class="st1" d="M295,286.1c-0.6-0.4-1.2-0.9-1.5-1.5c-0.4-0.6-0.6-1.3-0.6-2s0.2-1.4,0.6-2s0.9-1.1,1.5-1.5
			c0.6-0.4,1.3-0.6,2.1-0.6c0.8,0,1.5,0.2,2.1,0.6c0.7,0.4,1.2,0.9,1.6,1.5s0.6,1.3,0.6,2s-0.2,1.4-0.6,2c-0.4,0.6-0.9,1.1-1.6,1.5
			c-0.7,0.4-1.4,0.6-2.1,0.6C296.3,286.7,295.6,286.5,295,286.1z M293.9,311.5V290l6.5-0.6v22.1H293.9z"/>
		<path class="st1" d="M329.8,290.8c1.1,1.1,1.7,2.7,1.7,4.8v15.8H325v-13.9c0-0.9-0.1-1.6-0.3-2.1c-0.2-0.5-0.5-0.9-0.9-1.1
			c-0.4-0.2-1-0.3-1.8-0.3c-1.3,0-2.8,0.5-4.6,1.5v15.9h-6.5V290l6.5-0.6v2.1c1.2-0.7,2.4-1.3,3.6-1.7c1.2-0.4,2.4-0.6,3.7-0.6
			C327,289.2,328.6,289.7,329.8,290.8z"/>
		<path class="st1" d="M359.5,307.9c1.3,0.4,2.3,1,3,1.9c0.7,0.8,1.1,2,1.1,3.4c0,1.6-0.5,3-1.5,4.2c-1,1.2-2.4,2.1-4.3,2.7
			c-1.9,0.6-4.1,1-6.6,1c-3.3,0-6-0.5-8.1-1.5c-2.1-1-3.2-2.6-3.2-4.6c0-1.2,0.3-2.2,0.9-3c0.6-0.8,1.4-1.5,2.4-2.1
			c-0.9-0.7-1.3-1.6-1.3-2.6c0-0.6,0.2-1.3,0.6-1.9c0.4-0.6,1.1-1.2,2-1.9c-1.3-0.7-2.3-1.6-3-2.7c-0.7-1.1-1-2.3-1-3.7
			c0-1.8,0.5-3.3,1.5-4.5c1-1.2,2.3-2.1,3.9-2.6c1.6-0.6,3.4-0.8,5.4-0.8c1.1,0,2,0.1,2.8,0.2l7.6-3.2l1.9,5l-4.5,1.1
			c1.6,1.2,2.4,2.9,2.4,5c0,1.8-0.5,3.2-1.5,4.3c-1,1.1-2.3,1.9-3.9,2.4c-1.6,0.5-3.3,0.8-5.2,0.8c-0.9,0-1.7,0-2.4-0.1
			c-0.2,0.3-0.3,0.6-0.3,0.8c0,0.3,0.1,0.5,0.3,0.6s0.5,0.3,1,0.4s1.1,0.2,2,0.3l3.2,0.3C356.6,307.2,358.2,307.5,359.5,307.9z
			 M355.2,315.9c0.9-0.4,1.3-1,1.3-1.7c0-0.4-0.1-0.8-0.4-1.1s-0.7-0.5-1.4-0.6s-1.6-0.3-2.7-0.4l-2.7-0.2c-0.5,0-1.1-0.1-2-0.3
			c-0.3,0.4-0.5,0.9-0.7,1.3c-0.2,0.4-0.2,0.8-0.2,1.2c0,0.8,0.4,1.5,1.1,1.9c0.7,0.4,2,0.6,3.9,0.6
			C353.1,316.5,354.3,316.3,355.2,315.9z M347.1,297.1c0,1.1,0.4,1.9,1.1,2.4c0.7,0.5,1.7,0.7,3.1,0.7c1.4,0,2.4-0.3,3-0.8
			c0.6-0.5,0.9-1.3,0.9-2.3c0-1.1-0.3-1.9-1-2.4c-0.7-0.6-1.7-0.8-3-0.8C348.5,293.8,347.1,294.9,347.1,297.1z"/>
		<path class="st0" d="M404.9,280.4l11.2,30.7v0.4h-7.2l-2.5-7.4h-11.5l-2.4,7.4h-7.2v-0.4l11.2-30.7H404.9z M396.6,298.6h7.9
			l-4-11.9L396.6,298.6z"/>
		<path class="st1" d="M443.2,290.8c1.1,1.1,1.7,2.7,1.7,4.8v15.8h-6.5v-13.9c0-0.9-0.1-1.6-0.3-2.1c-0.2-0.5-0.5-0.9-0.9-1.1
			c-0.4-0.2-1-0.3-1.8-0.3c-1.3,0-2.8,0.5-4.6,1.5v15.9h-6.5V290l6.5-0.6v2.1c1.2-0.7,2.4-1.3,3.6-1.7c1.2-0.4,2.4-0.6,3.7-0.6
			C440.4,289.2,442,289.7,443.2,290.8z"/>
		<path class="st1" d="M475.4,277.8v33.6h-5.5l-0.5-1.5c-2.1,1.4-4.3,2.2-6.5,2.2c-3,0-5.2-0.9-6.8-2.8c-1.5-1.9-2.3-4.6-2.3-8.2
			c0-2.8,0.5-5.1,1.6-6.9c1.1-1.8,2.5-3.1,4.2-3.9c1.7-0.8,3.5-1.2,5.5-1.2c1.2,0,2.5,0.2,3.8,0.5v-11.2L475.4,277.8z M461.6,305.8
			c0.7,1,1.7,1.5,3,1.5c0.7,0,1.5-0.1,2.2-0.3s1.4-0.6,2.2-1v-11.8c-1-0.2-1.9-0.3-2.8-0.3c-1.7,0-3.1,0.6-4.1,1.9
			c-1,1.3-1.5,3.1-1.5,5.4C460.6,303.2,460.9,304.8,461.6,305.8z"/>
		<path class="st0" d="M508.7,305.6H523v5.9h-20.9v-31.1h6.6V305.6z"/>
		<path class="st1" d="M532.5,286.1c-0.6-0.4-1.2-0.9-1.5-1.5c-0.4-0.6-0.6-1.3-0.6-2s0.2-1.4,0.6-2s0.9-1.1,1.5-1.5
			c0.6-0.4,1.3-0.6,2.1-0.6c0.8,0,1.5,0.2,2.1,0.6c0.7,0.4,1.2,0.9,1.6,1.5s0.6,1.3,0.6,2s-0.2,1.4-0.6,2c-0.4,0.6-0.9,1.1-1.6,1.5
			c-0.7,0.4-1.4,0.6-2.1,0.6C533.8,286.7,533.1,286.5,532.5,286.1z M531.5,311.5V290l6.5-0.6v22.1H531.5z"/>
		<path class="st1" d="M568.4,289.9v0.3l-8,21.3h-6.6l-8.2-21.3v-0.3h6.9l3.7,11.5c0.4,1.5,0.8,2.7,1,3.8c0.1-0.3,0.2-0.8,0.3-1.5
			c0.2-0.8,0.3-1.5,0.5-2.3l3.1-11.5H568.4z"/>
		<path class="st1" d="M577.2,286.1c-0.6-0.4-1.2-0.9-1.5-1.5c-0.4-0.6-0.6-1.3-0.6-2s0.2-1.4,0.6-2s0.9-1.1,1.5-1.5
			c0.6-0.4,1.3-0.6,2.1-0.6c0.8,0,1.5,0.2,2.1,0.6c0.7,0.4,1.2,0.9,1.6,1.5s0.6,1.3,0.6,2s-0.2,1.4-0.6,2c-0.4,0.6-0.9,1.1-1.6,1.5
			c-0.7,0.4-1.4,0.6-2.1,0.6C578.6,286.7,577.9,286.5,577.2,286.1z M576.2,311.5V290l6.5-0.6v22.1H576.2z"/>
		<path class="st1" d="M612,290.8c1.1,1.1,1.7,2.7,1.7,4.8v15.8h-6.5v-13.9c0-0.9-0.1-1.6-0.3-2.1c-0.2-0.5-0.5-0.9-0.9-1.1
			c-0.4-0.2-1-0.3-1.8-0.3c-1.3,0-2.8,0.5-4.6,1.5v15.9h-6.5V290l6.5-0.6v2.1c1.2-0.7,2.4-1.3,3.6-1.7c1.2-0.4,2.4-0.6,3.7-0.6
			C609.2,289.2,610.9,289.7,612,290.8z"/>
		<path class="st1" d="M641.8,307.9c1.3,0.4,2.3,1,3,1.9c0.7,0.8,1.1,2,1.1,3.4c0,1.6-0.5,3-1.5,4.2c-1,1.2-2.4,2.1-4.3,2.7
			c-1.9,0.6-4.1,1-6.6,1c-3.3,0-6-0.5-8.1-1.5c-2.1-1-3.2-2.6-3.2-4.6c0-1.2,0.3-2.2,0.9-3c0.6-0.8,1.4-1.5,2.4-2.1
			c-0.9-0.7-1.3-1.6-1.3-2.6c0-0.6,0.2-1.3,0.6-1.9c0.4-0.6,1.1-1.2,2-1.9c-1.3-0.7-2.3-1.6-3-2.7c-0.7-1.1-1-2.3-1-3.7
			c0-1.8,0.5-3.3,1.5-4.5c1-1.2,2.3-2.1,3.9-2.6c1.6-0.6,3.4-0.8,5.4-0.8c1.1,0,2,0.1,2.8,0.2l7.6-3.2l1.9,5l-4.5,1.1
			c1.6,1.2,2.4,2.9,2.4,5c0,1.8-0.5,3.2-1.5,4.3c-1,1.1-2.3,1.9-3.9,2.4c-1.6,0.5-3.3,0.8-5.2,0.8c-0.9,0-1.7,0-2.4-0.1
			c-0.2,0.3-0.3,0.6-0.3,0.8c0,0.3,0.1,0.5,0.3,0.6s0.5,0.3,1,0.4s1.1,0.2,2,0.3l3.2,0.3C638.9,307.2,640.5,307.5,641.8,307.9z
			 M637.5,315.9c0.9-0.4,1.3-1,1.3-1.7c0-0.4-0.1-0.8-0.4-1.1s-0.7-0.5-1.4-0.6s-1.6-0.3-2.7-0.4l-2.7-0.2c-0.5,0-1.1-0.1-2-0.3
			c-0.3,0.4-0.5,0.9-0.7,1.3c-0.2,0.4-0.2,0.8-0.2,1.2c0,0.8,0.4,1.5,1.1,1.9c0.7,0.4,2,0.6,3.9,0.6
			C635.3,316.5,636.6,316.3,637.5,315.9z M629.4,297.1c0,1.1,0.4,1.9,1.1,2.4c0.7,0.5,1.7,0.7,3.1,0.7c1.4,0,2.4-0.3,3-0.8
			c0.6-0.5,0.9-1.3,0.9-2.3c0-1.1-0.3-1.9-1-2.4c-0.7-0.6-1.7-0.8-3-0.8C630.8,293.8,629.4,294.9,629.4,297.1z"/>
	</g>
</g>
</svg>
